h=0.1;

Point(1) = {0.,0.,0.,h};
Point(2) = {0.,0.,5.,h};
Point(3) = {0.,3.*Pi/4.,0.,h};
Point(4) = {0.,3.*Pi/4.,5.,h};
Point(5) = {1.,0.,0.,h};
Point(6) = {1.,0.,5.,h};
Point(7) = {1.,3.*Pi/4.,0.,h};
Point(8) = {1.,3.*Pi/4.,5.,h};
Line(1) = {1,2};
Line(2) = {2,6};
Line(3) = {6,5};
Line(4) = {5,1};
Line(5) = {3,4};
Line(6) = {4,8};
Line(7) = {8,7};
Line(8) = {7,3};
Line(9) = {1,3};
Line(10) = {2,4};
Line(11) = {6,8};
Line(12) = {5,7};
Line Loop(13) = {1,2,3,4};
Plane Surface(14) = {13};
Line Loop(15) = {5,6,7,8};
Plane Surface(16) = {15};
Line Loop(17) = {1,10,-5,-9};
Plane Surface(18) = {17};
Line Loop(19) = {-3,11,7,-12};
Plane Surface(20) = {19};
Line Loop(21) = {10,6,-11,-2};
Plane Surface(22) = {21};
Line Loop(23) = {9,-8,-12,4};
Plane Surface(24) = {23};
Physical Surface(25) = {14,16,18,20,22,24};
Surface Loop(26) = {14,16,18,20,22,24};
Volume(27) = {26};
Physical Volume(28) = {27};